:SAMPLES-PER-SECOND 30
:FULLY-SPECIFIED
:DEGREES
367
root  -73.4401 34.45 27.4499 -175.105 56.1116 -178.493
RightUpLeg  -11.3804 -23.2285 -3.39845
RightLeg  30.6287 -6.93476 -3.52089
RightFoot  -5.15543 0.0158525 0.949301
RightToes  -27.2026 -0.12514 -0.232061
Spine  0.655457 1.966 -2.6571
Spine1  1.11489 4.11388 -4.64613
HEad  -73.227 -19.8519 6.16141
LeftShoulder1  -1.94126e-019 -3.10601e-018 -2.51263e-017
LeftArm  -1.15779 22.3721 -71.0141
LeftForeArm  29.0735 -43.877 -8.75014
LeftHand  -0.373652 -3.0454 5.37949
RightShoulder  -4.96962e-017 0 -2.36833e-017
RightArm  -6.38291 2.85899 69.8782
RightForeArm  47.9705 45.6623 8.12537
RightHand  -0.288555 -0.287573 -6.57427
LeftUpLeg  -21.1836 7.36345 2.02069
LeftLeg  25.5649 13.1788 5.2285
LeftFoot  -6.32143 -0.0879021 -1.43018
LeftToes  -46.379 2.32378e-006 -5.43956e-008
368
root  -73.5087 34.2055 27.8407 -175.315 54.2622 -177.927
RightUpLeg  -8.54206 -23.0546 -1.95365
RightLeg  26.9469 -8.99775 -3.8509
RightFoot  -7.65008 0.0649941 1.57633
RightToes  -22.3319 -0.094836 -0.195302
Spine  0.942991 2.0371 -2.49513
Spine1  1.67893 4.29931 -4.35593
HEad  -72.9704 -20.7369 6.66142
LeftShoulder1  -1.94126e-019 -3.10601e-018 -2.51263e-017
LeftArm  0.898473 19.5935 -72.6223
LeftForeArm  32.348 -46.1175 -9.32415
LeftHand  -0.30743 -4.25517 3.98077
RightShoulder  -4.96962e-017 0 -2.36833e-017
RightArm  -8.71509 3.92901 69.2672
RightForeArm  46.0264 47.6535 8.94595
RightHand  -0.306961 -1.02166 -8.08669
LeftUpLeg  -23.0062 10.5632 2.522
LeftLeg  28.7094 11.3689 5.25428
LeftFoot  -6.2197 -0.0746754 -1.21286
LeftToes  -48.0411 2.32378e-006 -5.43956e-008
369
root  -73.5562 33.838 28.2985 -174.846 53.6144 -176.316
RightUpLeg  -7.79365 -21.165 -0.193888
RightLeg  26.9307 -10.9738 -4.67806
RightFoot  -10.9643 0.189035 2.58333
RightToes  -20.3587 -0.0834671 -0.1797
Spine  1.23905 2.24849 -2.04445
Spine1  2.25999 4.78701 -3.50915
HEad  -72.4889 -20.7044 6.46017
LeftShoulder1  -1.94126e-019 -3.10601e-018 -2.51263e-017
LeftArm  2.07592 17.1366 -74.2298
LeftForeArm  33.8818 -47.7954 -9.85468
LeftHand  -0.338436 -4.73211 4.17668
RightShoulder  -4.96962e-017 0 -2.36833e-017
RightArm  -9.75059 5.4009 68.9389
RightForeArm  44.5084 49.0156 9.55679
RightHand  -0.29916 -1.86027 -9.64441
LeftUpLeg  -25.6807 15.4182 3.81645
LeftLeg  34.1898 10.9792 6.39779
LeftFoot  -6.66439 -0.0866592 -1.32676
LeftToes  -46.6182 2.32378e-006 -5.43956e-008
370
root  -73.6114 33.4487 28.6707 -175.168 53.8503 -175.116
RightUpLeg  -10.5388 -20.7283 0.666345
RightLeg  33.9538 -10.7023 -6.19611
RightFoot  -11.8726 0.23598 2.8855
RightToes  -18.6661 -0.0741482 -0.166012
Spine  1.74988 2.36507 -1.61764
Spine1  3.27548 5.09398 -2.71886
HEad  -71.7174 -20.0337 5.67912
LeftShoulder1  -1.94126e-019 -3.10601e-018 -2.51263e-017
LeftArm  1.81308 15.2766 -75.7334
LeftForeArm  33.7031 -48.869 -10.2997
LeftHand  -0.419361 -4.30779 5.30177
RightShoulder  -4.96962e-017 0 -2.36833e-017
RightArm  -9.47559 7.40391 69.4136
RightForeArm  44.3137 49.1844 9.62757
RightHand  -0.327386 -2.12193 -11.3997
LeftUpLeg  -27.3238 20.7451 4.89033
LeftLeg  39.0632 13.308 9.27803
LeftFoot  -6.71382 -0.112964 -1.76412
LeftToes  -39.9403 2.32378e-006 -5.43956e-008
371
root  -73.5399 33.1623 28.9013 -175.977 54.1814 -173.975
RightUpLeg  -9.41772 -25.0463 0.0446985
RightLeg  35.4603 -6.68422 -4.13888
RightFoot  -13.0305 0.169834 2.07653
RightToes  -20.8071 -0.0860032 -0.183279
Spine  2.08355 2.19269 -1.02969
Spine1  3.97131 4.77576 -1.58149
HEad  -69.8687 -18.9019 3.74452
LeftShoulder1  -1.94126e-019 -3.10601e-018 -2.51263e-017
LeftArm  0.597197 15.1105 -77.3665
LeftForeArm  32.5848 -48.6327 -10.2816
LeftHand  -0.547912 -3.67589 7.27516
RightShoulder  -4.96962e-017 0 -2.36833e-017
RightArm  -6.93269 8.53398 70.1286
RightForeArm  44.8501 48.6062 9.35921
RightHand  -0.345071 -2.17133 -12.2135
LeftUpLeg  -26.8606 25.9426 6.33888
LeftLeg  40.5633 11.0878 8.20437
LeftFoot  -3.92612 -0.031873 -0.768349
LeftToes  -40.9639 2.32378e-006 -5.43956e-008
